<svg width="35" height="35" viewBox="0 0 35 35" fill="none" xmlns="http://www.w3.org/2000/svg">
<path d="M24.9187 14.2598C25.9758 14.7555 26.8303 15.0035 27.7065 15.0035C28.6068 15.0035 29.5661 14.7462 30.8205 14.2316C30.5052 13.4834 30.6804 13.0604 30.9118 12.5018C31.0472 12.1753 31.211 11.78 31.211 11.1193C31.211 10.181 30.8392 9.33131 30.2365 8.71234C29.6348 8.09449 28.804 7.70514 27.8845 7.68603V7.68808H27.8759V7.68603C26.9563 7.70514 26.1255 8.09441 25.5237 8.71234C24.921 9.33126 24.5492 10.181 24.5492 11.1193C24.5492 11.7673 24.7099 12.1639 24.8432 12.493C25.074 13.0628 25.2488 13.4949 24.9187 14.2598H24.9187ZM32.5489 19.15C32.5211 19.1351 32.2046 19.0273 31.8198 18.8983C31.8277 18.9202 31.8353 18.9424 31.8427 18.9648C31.9866 19.405 32.0296 19.949 31.8461 20.5979L31.56 21.6097L30.8789 20.8111C30.8778 20.8099 30.5992 20.4794 30.2817 20.2917C30.0556 20.608 29.7947 20.899 29.5273 21.1592C28.9848 21.6873 28.4119 22.0944 28.0608 22.3212L27.7575 22.4113C27.4236 22.4113 26.9705 22.0438 26.5344 21.5686C26.3855 21.4063 26.2311 21.2271 26.0824 21.0471C26.002 20.79 25.9027 20.5399 25.767 20.3043L25.7206 20.2237C25.2054 19.3292 23.8585 18.6793 22.6064 18.2035C22.6321 18.1888 22.6579 18.1746 22.6839 18.1609L22.6838 18.1608C22.8449 18.0746 24.2478 17.61 24.8259 17.4185C24.9847 17.3659 25.0112 17.3596 25.0514 17.345L25.9874 17.005L25.7944 17.9803C25.789 18.0078 25.7863 18.0252 25.7852 18.0376C25.784 18.05 25.7814 18.0938 25.7787 18.1431L25.7633 18.4147L25.5391 18.5718C25.4108 18.6616 25.1322 18.8938 24.9953 19.2846C25.1916 19.1762 25.4058 19.0909 25.6263 19.0585L26.0024 19.0031L26.1934 19.3354C26.3151 19.5472 26.8602 20.2623 27.361 20.8081C27.5223 20.9839 27.6286 21.1337 27.6917 21.2165C27.9916 21.0079 28.3777 20.712 28.7448 20.3547C29.0579 20.05 29.3553 19.7033 29.5668 19.3354L29.7578 19.0031L30.1339 19.0585C30.3544 19.0909 30.5686 19.1762 30.7649 19.2845C30.628 18.8938 30.3495 18.6616 30.2211 18.5718L29.9969 18.4147L29.9815 18.1431C29.9787 18.0935 29.9762 18.0497 29.9751 18.0376C29.9739 18.0254 29.9713 18.0079 29.9658 17.9803L29.7727 17.005L30.7088 17.345C30.749 17.3597 30.7755 17.3659 30.9343 17.4185C31.5124 17.61 32.9153 18.0746 33.0764 18.1608L33.0763 18.1609C33.2858 18.2713 33.4833 18.4149 33.6651 18.584C34.1947 19.0767 34.6275 19.8155 34.8446 20.5824C35.0703 21.3799 35.0682 22.2274 34.7136 22.9035C34.6238 23.0748 34.5142 23.2326 34.3832 23.3733L34.3788 23.3755C34.1487 23.6188 33.8935 23.7905 33.6129 23.9022C33.3342 24.013 33.0421 24.0626 32.7342 24.0626H27.8833H27.8801H27.8769H26.8689V24.0065L26.7912 23.6221L26.7632 23.5554C26.6807 23.3587 26.6132 23.1495 26.5538 22.9371H27.8769H27.8801H27.8833H32.7342C32.9105 22.9371 33.0661 22.9133 33.1996 22.8602C33.33 22.8084 33.4507 22.7267 33.5623 22.6095L33.5611 22.6083C33.6261 22.5385 33.6788 22.4635 33.7201 22.3847C33.9304 21.9837 33.9175 21.4313 33.7631 20.8858C33.6001 20.3098 33.2833 19.7626 32.9001 19.4061C32.7848 19.2989 32.6681 19.2124 32.5532 19.1522L32.5489 19.15L32.5489 19.15ZM27.7065 16.129C26.4917 16.129 25.3606 15.7565 23.8977 15.0118L23.3569 14.7364L23.6735 14.2182C24.0676 13.5729 23.9573 13.3006 23.8012 12.9151C23.63 12.4924 23.4237 11.983 23.4237 11.1193C23.4237 9.87883 23.918 8.75258 24.7192 7.9298C25.5219 7.10562 26.6339 6.58716 27.8672 6.56479L27.8759 6.56256H27.8845L27.8932 6.56479C29.1264 6.58716 30.2384 7.10562 31.041 7.9298C31.8422 8.75262 32.3365 9.87885 32.3365 11.1193C32.3365 11.9941 32.1245 12.5056 31.9494 12.9283C31.7928 13.3062 31.683 13.5712 32.0782 14.2182L32.4132 14.7667L31.8232 15.0249C30.1415 15.7609 28.9061 16.129 27.7065 16.129H27.7065Z" fill="#212121"/>
<path d="M10.2762 11.2891C10.2762 11.206 10.2888 10.9197 10.3007 10.6476C10.3094 10.4493 10.3176 10.2603 10.3176 10.1533C10.3176 9.46615 10.0384 8.8433 9.58752 8.39231C9.13659 7.94133 8.51388 7.66213 7.82681 7.66213H7.69375C7.00653 7.66213 6.38373 7.9413 5.93283 8.39231C5.48179 8.8433 5.20265 9.46615 5.20265 10.1533C5.20265 10.2627 5.21107 10.454 5.21984 10.6536C5.23174 10.9238 5.24415 11.2062 5.24415 11.2891V11.8204L4.70997 11.8496C4.59333 11.856 4.53369 11.8978 4.51456 11.953C4.49615 12.0062 4.49087 12.0765 4.49655 12.1557C4.50325 12.2482 4.52621 12.3445 4.56222 12.4363C4.6372 12.6277 4.74477 12.7857 4.83552 12.7857H5.24875L5.37185 13.1835C5.51646 13.6507 5.70151 14.0322 5.90543 14.3439C6.1041 14.6476 6.31798 14.8809 6.52756 15.0604C6.74865 15.2494 6.96414 15.3803 7.15302 15.4706C7.49708 15.6352 7.69583 15.6604 7.70194 15.6604H7.82682C7.83123 15.6604 8.02422 15.6364 8.36968 15.4717C8.56014 15.3809 8.77448 15.2518 8.9886 15.0689L8.99081 15.0667C9.2193 14.8725 9.45132 14.6153 9.66275 14.2754C9.84805 13.9775 10.0167 13.6172 10.1526 13.1813L10.2761 12.7857H10.689C10.7807 12.7857 10.888 12.6292 10.9624 12.4393C10.9982 12.3478 11.0211 12.2515 11.0276 12.1588C11.0332 12.0809 11.0278 12.0113 11.0092 11.9579V11.9557C10.9896 11.8991 10.9288 11.856 10.8104 11.8496L10.2762 11.8204V11.2891V11.2891ZM11.3882 18.579C11.0029 18.4365 10.6266 18.3074 10.3094 18.1986C10.25 18.1782 10.193 18.1587 10.1323 18.1376C9.3836 18.6284 8.61273 18.8978 7.81603 18.9115C7.0117 18.9254 6.20256 18.6775 5.38781 18.1327C5.33463 18.1504 5.27911 18.1687 5.22017 18.1882C4.20024 18.5246 2.14154 19.2036 1.89834 19.7204L1.89778 19.7202C1.75659 20.0702 1.51335 20.7531 1.33271 21.3723C1.21359 21.7806 1.12545 22.1447 1.12545 22.3183C1.12545 22.4895 1.19459 22.6443 1.30641 22.7561C1.41824 22.868 1.57302 22.9371 1.74424 22.9371H8.31574C8.2182 23.3117 8.13361 23.719 8.1309 24.0625H1.74424C1.26236 24.0625 0.826342 23.8675 0.510704 23.5518C0.195093 23.2362 0 22.8002 0 22.3183C0 22.037 0.108703 21.5638 0.255594 21.0602C0.450337 20.3928 0.720519 19.6398 0.871796 19.2698L0.882777 19.2412C1.33228 18.2863 3.69693 17.5062 4.86842 17.1199C5.05695 17.0577 5.2148 17.0056 5.28937 16.9791L5.56957 16.8798L5.81036 17.0583C6.49979 17.5694 7.16129 17.8015 7.79849 17.7904C8.4366 17.7794 9.07678 17.5231 9.71874 17.058L9.95784 16.8847L10.2353 16.9832C10.3056 17.0082 10.4815 17.0685 10.6743 17.1346C11.3049 17.3509 12.1445 17.639 12.8991 17.9871C12.4155 18.1542 11.8903 18.3502 11.3882 18.579L11.3882 18.579ZM11.4217 10.696L11.415 10.8534C11.7454 11.0017 11.9559 11.2672 12.068 11.5889L12.0687 11.5886C12.0806 11.6229 12.0912 11.6576 12.1005 11.6927C12.0675 11.7638 12.0379 11.8372 12.0117 11.9127C11.8993 12.2365 11.8603 12.5818 11.8849 12.923C11.8887 12.9756 11.8939 13.0282 11.9006 13.0807C11.719 13.4153 11.4475 13.6923 11.1203 13.8256C10.9739 14.2248 10.8026 14.5702 10.6167 14.8689C10.3385 15.3161 10.0267 15.6601 9.7162 15.924L9.71601 15.9238C9.41264 16.1825 9.11506 16.3625 8.85328 16.4873C8.30659 16.7479 7.83884 16.7859 7.82681 16.7859H7.70193C7.68598 16.7859 7.2207 16.7454 6.66944 16.4818C6.40138 16.3536 6.09955 16.1713 5.79775 15.9133C5.51212 15.6685 5.22461 15.3568 4.96465 14.9594C4.75699 14.6421 4.56523 14.2673 4.40394 13.8249C4.00417 13.661 3.68687 13.2816 3.51589 12.8452C3.43948 12.6502 3.39034 12.4409 3.37551 12.2348C3.35968 12.0155 3.38361 11.794 3.45506 11.5881C3.56657 11.267 3.776 11.0018 4.10534 10.8537L4.09875 10.7019C4.08774 10.4512 4.07713 10.211 4.07713 10.1533C4.07713 9.15548 4.48242 8.2512 5.13708 7.59658C5.79169 6.94194 6.69587 6.53668 7.69375 6.53668H7.8268C8.82455 6.53668 9.72868 6.94197 10.3833 7.5966C11.0378 8.25129 11.443 9.15549 11.443 10.1533C11.443 10.2082 11.4327 10.4461 11.4217 10.696L11.4217 10.696Z" fill="#212121"/>
<path d="M20.2834 11.8194C20.2834 11.7271 20.2973 11.4088 20.3105 11.1064C20.3201 10.886 20.3293 10.6759 20.3293 10.5569C20.3293 9.79308 20.019 9.10073 19.5177 8.59942C19.0165 8.09811 18.3243 7.78775 17.5606 7.78775H17.4127C16.6488 7.78775 15.9565 8.09809 15.4552 8.5994C14.9539 9.10071 14.6436 9.79308 14.6436 10.5569C14.6436 10.6785 14.6529 10.8912 14.6627 11.113C14.6759 11.4134 14.6897 11.7273 14.6897 11.8194V12.4099L14.0959 12.4425C13.9663 12.4496 13.9 12.4961 13.8787 12.5574C13.8582 12.6166 13.8524 12.6946 13.8587 12.7827C13.8661 12.8855 13.8917 12.9926 13.9317 13.0947C14.015 13.3074 14.1346 13.483 14.2355 13.483H14.6948L14.8317 13.9253C14.9924 14.4446 15.1981 14.8687 15.4248 15.2152C15.6456 15.5527 15.8834 15.812 16.1163 16.0116C16.3621 16.2217 16.6016 16.3672 16.8116 16.4676C17.194 16.6505 17.415 16.6786 17.4218 16.6786H17.5606C17.5655 16.6786 17.78 16.6519 18.164 16.4688C18.3758 16.3679 18.614 16.2243 18.852 16.021L18.8544 16.0186C19.1085 15.8027 19.3663 15.5168 19.6014 15.139C19.8073 14.8079 19.9948 14.4073 20.1459 13.9228L20.2832 13.483H20.7421C20.844 13.483 20.9633 13.3091 21.046 13.098C21.0859 12.9963 21.1113 12.8892 21.1186 12.7861C21.1247 12.6996 21.1187 12.6223 21.0981 12.5629V12.5604C21.0763 12.4975 21.0088 12.4496 20.8771 12.4425L20.2834 12.41V11.8194L20.2834 11.8194ZM24.0275 21.2452C23.5439 20.6058 21.5389 19.918 20.3202 19.4999C20.2541 19.4773 20.1908 19.4556 20.1233 19.4322C19.2911 19.9777 18.4342 20.2771 17.5486 20.2924C16.6545 20.3079 15.7551 20.0323 14.8494 19.4267C14.7903 19.4464 14.7286 19.4667 14.6631 19.4884C13.5293 19.8623 11.2409 20.6172 10.9705 21.1916L10.97 21.1913C10.813 21.5804 10.5426 22.3395 10.3418 23.0278C10.2094 23.4816 10.1114 23.8864 10.1114 24.0794C10.1114 24.2697 10.1883 24.4417 10.3126 24.566C10.4369 24.6903 10.6089 24.7672 10.7992 24.7672H24.2015C24.3919 24.7672 24.5639 24.6903 24.6882 24.5661C24.79 24.4643 24.8599 24.3305 24.882 24.181C24.7021 23.7128 24.5762 23.1881 24.4522 22.6714C24.3271 22.1499 24.2041 21.6374 24.0275 21.2452H24.0275ZM20.7258 18.3173C22.1161 18.7942 24.4208 19.5847 25.0895 20.5876L25.136 20.6682C25.3733 21.1709 25.5174 21.7715 25.6641 22.3831C25.7852 22.8876 25.9083 23.4006 26.0916 23.8375L26.1405 24.0794C26.1405 24.6151 25.9236 25.0998 25.5728 25.4506C25.2219 25.8014 24.7372 26.0183 24.2014 26.0183H10.7992C10.2636 26.0183 9.77887 25.8014 9.42806 25.4506C9.07722 25.0997 8.86035 24.615 8.86035 24.0794C8.86035 23.7667 8.98119 23.2407 9.1445 22.6808C9.36096 21.939 9.66129 21.102 9.82941 20.6907L9.84163 20.6589C10.3413 19.5975 12.9698 18.7304 14.2721 18.3008C14.4816 18.2317 14.657 18.1738 14.74 18.1444L15.0514 18.0339L15.3191 18.2324C16.0855 18.8005 16.8207 19.0585 17.529 19.0463C18.2384 19.034 18.95 18.7491 19.6636 18.232L19.9294 18.0395L20.2378 18.149C20.316 18.1767 20.5115 18.2438 20.7258 18.3173L20.7258 18.3173ZM21.5567 11.1601L21.5491 11.3352C21.9164 11.4999 22.1503 11.7951 22.2751 12.1527L22.2759 12.1524C22.3555 12.3815 22.3822 12.6287 22.3647 12.8741C22.3485 13.103 22.2941 13.3355 22.2091 13.5525C22.0193 14.037 21.6668 14.4576 21.2215 14.639C21.0589 15.0827 20.8684 15.4666 20.6618 15.7987C20.3526 16.2958 20.006 16.6782 19.6608 16.9715L19.6606 16.9713C19.3234 17.2589 18.9926 17.459 18.7016 17.5977C18.0939 17.8874 17.574 17.9296 17.5606 17.9296H17.4218C17.404 17.9296 16.8868 17.8847 16.2741 17.5916C15.9761 17.4491 15.6406 17.2464 15.3051 16.9596C14.9876 16.6876 14.668 16.341 14.379 15.8994C14.1482 15.5465 13.935 15.13 13.7558 14.6381C13.3114 14.456 12.9587 14.0343 12.7686 13.5492C12.6837 13.3324 12.629 13.0997 12.6126 12.8707C12.595 12.6269 12.6216 12.3807 12.701 12.1519C12.8249 11.7948 13.0578 11.5002 13.4238 11.3355L13.4165 11.1668C13.4043 10.8881 13.3925 10.621 13.3925 10.5569C13.3925 9.44776 13.843 8.44258 14.5707 7.71486C15.2984 6.98715 16.3034 6.53668 17.4127 6.53668H17.5606C18.6697 6.53668 19.6746 6.98718 20.4023 7.71489C21.1299 8.44264 21.5804 9.44774 21.5804 10.5569C21.5804 10.6179 21.5688 10.8824 21.5567 11.1601V11.1601Z" fill="#212121"/>
</svg>
