<svg width="52" height="52" viewBox="0 0 52 52" fill="none" xmlns="http://www.w3.org/2000/svg">
<path d="M32.5 33.5563L26.1625 40.1375L19.9062 33.5563C19.9062 33.5563 11.7 35.5875 9.425 36.1563C7.15 36.725 6.5 42.0063 6.5 45.7438" stroke="#2C3E50" stroke-width="2" stroke-miterlimit="10" stroke-linecap="round" stroke-linejoin="round"/>
<path d="M34.2065 11.9437C33.1503 6.90625 28.2753 6.09375 26.0003 6.09375C23.1565 6.09375 18.5253 6.74375 17.794 12.7562C17.2253 17.3875 19.3378 23.3188 20.8815 25.35C22.669 27.5438 24.2128 28.6812 26.4065 28.6812C28.4378 28.6812 29.819 27.7062 31.6065 25.025C33.2315 22.5062 35.1003 16.1687 34.2065 11.9437Z" stroke="#2C3E50" stroke-width="2" stroke-miterlimit="10" stroke-linecap="round" stroke-linejoin="round"/>
<path d="M41.3566 48.1C45.8888 48.1 49.5629 44.4259 49.5629 39.8937C49.5629 35.3616 45.8888 31.6875 41.3566 31.6875C36.8245 31.6875 33.1504 35.3616 33.1504 39.8937C33.1504 44.4259 36.8245 48.1 41.3566 48.1Z" stroke="#2C3E50" stroke-width="2" stroke-miterlimit="10" stroke-linecap="round" stroke-linejoin="round"/>
<path d="M37.7812 39.4875L40.625 42.4125L45.0125 38.025" stroke="#2C3E50" stroke-width="2" stroke-miterlimit="10" stroke-linecap="round" stroke-linejoin="round"/>
</svg>
