<svg width="52" height="52" viewBox="0 0 52 52" fill="none" xmlns="http://www.w3.org/2000/svg">
<path d="M32.5 33.5563L26.1625 40.1375L19.9062 33.5563C19.9062 33.5563 11.7 35.5875 9.425 36.1563C7.15 36.725 6.5 42.0063 6.5 45.7438" stroke="#2C3E50" stroke-width="2" stroke-miterlimit="10" stroke-linecap="round" stroke-linejoin="round"/>
<path d="M34.206 11.9437C33.1498 6.90625 28.2748 6.09375 25.9998 6.09375C23.156 6.09375 18.5248 6.74375 17.7935 12.7562C17.2248 17.3875 19.3373 23.3188 20.881 25.35C22.6685 27.5438 24.2123 28.6812 26.406 28.6812C28.4373 28.6812 29.8185 27.7062 31.606 25.025C33.231 22.5062 35.0998 16.1687 34.206 11.9437Z" stroke="#2C3E50" stroke-width="2" stroke-miterlimit="10" stroke-linecap="round" stroke-linejoin="round"/>
<path d="M41.3562 48.1C45.8883 48.1 49.5624 44.4259 49.5624 39.8937C49.5624 35.3616 45.8883 31.6875 41.3562 31.6875C36.824 31.6875 33.1499 35.3616 33.1499 39.8937C33.1499 44.4259 36.824 48.1 41.3562 48.1Z" stroke="#2C3E50" stroke-width="2" stroke-miterlimit="10" stroke-linecap="round" stroke-linejoin="round"/>
<path d="M37.7812 39.4875L40.625 42.4125L45.0125 38.025" stroke="#2C3E50" stroke-width="2" stroke-miterlimit="10" stroke-linecap="round" stroke-linejoin="round"/>
</svg>
