<svg width="16" height="20" viewBox="0 0 16 20" fill="none" xmlns="http://www.w3.org/2000/svg">
<g clip-path="url(#clip0_2294_3262)">
<path d="M3.42857 2.00003C3.42857 1.36896 3.93929 0.857178 4.57143 0.857178C5.20357 0.857178 5.71429 1.36896 5.71429 2.00003V3.14289H10.2857V2.00003C10.2857 1.36896 10.7964 0.857178 11.4286 0.857178C12.0607 0.857178 12.5714 1.36896 12.5714 2.00003V3.14289H14.2857C15.2321 3.14289 16 3.91039 16 4.85718V6.57146H0V4.85718C0 3.91039 0.7675 3.14289 1.71429 3.14289H3.42857V2.00003ZM16 17.4286C16 18.375 15.2321 19.1429 14.2857 19.1429H1.71429C0.7675 19.1429 0 18.375 0 17.4286V7.71432H16V17.4286Z" fill="#197AFF"/>
</g>
<defs>
<clipPath id="clip0_2294_3262">
<rect width="16" height="18.2857" fill="white" transform="translate(0 0.857178)"/>
</clipPath>
</defs>
</svg>
