<svg width="22" height="22" viewBox="0 0 22 22" fill="none" xmlns="http://www.w3.org/2000/svg">
<path d="M11 22C17.0751 22 22 17.0751 22 11C22 4.92487 17.0751 0 11 0C4.92487 0 0 4.92487 0 11C0 17.0751 4.92487 22 11 22Z" fill="#39B54A"/>
<path d="M6.85379 14.6387C6.59366 14.8989 6.59366 15.3211 6.85379 15.5815L8.03246 16.7599C8.29259 17.0201 8.71473 17.0201 8.97513 16.7599L18.3737 7.36133C18.6338 7.10093 18.6338 6.6788 18.3737 6.41853L17.1953 5.24013C16.9349 4.97973 16.5127 4.97973 16.2523 5.24013L6.85379 14.6387Z" fill="white"/>
<path d="M10.1867 14.6387C10.4471 14.8989 10.4471 15.3212 10.1867 15.5815L9.0083 16.7599C8.7479 17.0201 8.32577 17.0201 8.06563 16.7599L3.62576 12.3201C3.36563 12.0599 3.36563 11.6377 3.62576 11.3775L4.80416 10.1989C5.06456 9.93866 5.4867 9.93866 5.7471 10.1989L10.1867 14.6387Z" fill="white"/>
</svg>
