<svg width="37" height="35" viewBox="0 0 37 35" fill="none" xmlns="http://www.w3.org/2000/svg">
<path fill-rule="evenodd" clip-rule="evenodd" d="M11.3846 17.0769L0 25.6154L11.3846 34.1538V28.4615H21.3462V22.7692H11.3846V17.0769ZM37 8.53846L25.6154 0V5.69231H15.6538V11.3846H25.6154V17.0769L37 8.53846Z" fill="#1ABC9C"/>
<path fill-rule="evenodd" clip-rule="evenodd" d="M34.1544 22.7692H31.3082V28.4615H34.1544V22.7692ZM2.84668 11.3846H5.69283V5.69226H2.84668V11.3846Z" fill="#16A085"/>
<path fill-rule="evenodd" clip-rule="evenodd" d="M27.0383 22.7692V28.4615H29.8845V22.7692H27.0383ZM7.11523 11.3846H9.96139V5.69226H7.11523V11.3846Z" fill="#16A085"/>
<path fill-rule="evenodd" clip-rule="evenodd" d="M25.6155 22.7692H22.7694V28.4615H25.6155V22.7692ZM11.3848 11.3846H14.2309V5.69226H11.3848V11.3846Z" fill="#16A085"/>
</svg>
