<svg width="22" height="20" viewBox="0 0 22 20" fill="none" xmlns="http://www.w3.org/2000/svg">
<path d="M21.6922 16.4087L13.0582 1.19947C12.6387 0.457465 11.853 0 11.0007 0C10.1475 0 9.36229 0.457465 8.94144 1.19947L0.308724 16.4087C-0.107273 17.141 -0.102862 18.0405 0.321958 18.7688C0.745014 19.4958 1.52451 19.9449 2.36709 19.9449H19.6325C20.4751 19.9449 21.2542 19.4958 21.6781 18.7688C22.1034 18.0405 22.1064 17.141 21.6922 16.4087Z" fill="#C90C0F"/>
<path d="M12.1794 17.1503C11.8896 17.4071 11.5472 17.5372 11.159 17.5372C10.7673 17.5372 10.4201 17.4088 10.1272 17.1552C9.82856 16.8945 9.67725 16.531 9.67725 16.0726C9.67725 15.6712 9.82062 15.3236 10.1016 15.0412C10.384 14.7593 10.7342 14.616 11.1414 14.616C11.549 14.616 11.9019 14.7593 12.1896 15.0395C12.4776 15.3231 12.6254 15.6712 12.6254 16.0726C12.6263 16.5257 12.4754 16.8861 12.1794 17.1503Z" fill="white"/>
<path d="M12.5637 7.35608L12.1874 11.663C12.1446 12.1989 12.0542 12.6039 11.9099 12.8981C11.7511 13.2228 11.4736 13.3949 11.107 13.3949C10.7347 13.3949 10.459 13.2259 10.3117 12.9079C10.1815 12.6238 10.0906 12.2122 10.0364 11.6475L9.75493 7.45578C9.70244 6.62819 9.67773 6.04941 9.67773 5.689C9.67773 5.16669 9.81934 4.75113 10.099 4.4516C10.3818 4.14986 10.7559 3.99634 11.2116 3.99634C11.7745 3.99634 12.1592 4.20059 12.3563 4.60291C12.5368 4.97391 12.6263 5.48652 12.6263 6.17073C12.6263 6.55673 12.6043 6.95508 12.5637 7.35608Z" fill="white"/>
</svg>
