<svg width="28" height="28" viewBox="0 0 28 28" fill="none" xmlns="http://www.w3.org/2000/svg">
<path d="M24.5 7.875H9.625C9.39294 7.875 9.17038 7.78281 9.00628 7.61872C8.84219 7.45462 8.75 7.23206 8.75 7C8.75 6.76794 8.84219 6.54538 9.00628 6.38128C9.17038 6.21719 9.39294 6.125 9.625 6.125H24.5C24.7321 6.125 24.9546 6.21719 25.1187 6.38128C25.2828 6.54538 25.375 6.76794 25.375 7C25.375 7.23206 25.2828 7.45462 25.1187 7.61872C24.9546 7.78281 24.7321 7.875 24.5 7.875Z" fill="black"/>
<path d="M6.125 7.875H3.5C3.26794 7.875 3.04538 7.78281 2.88128 7.61872C2.71719 7.45462 2.625 7.23206 2.625 7C2.625 6.76794 2.71719 6.54538 2.88128 6.38128C3.04538 6.21719 3.26794 6.125 3.5 6.125H6.125C6.35706 6.125 6.57962 6.21719 6.74372 6.38128C6.90781 6.54538 7 6.76794 7 7C7 7.23206 6.90781 7.45462 6.74372 7.61872C6.57962 7.78281 6.35706 7.875 6.125 7.875Z" fill="black"/>
<path d="M18.375 14.875H3.5C3.26794 14.875 3.04538 14.7828 2.88128 14.6187C2.71719 14.4546 2.625 14.2321 2.625 14C2.625 13.7679 2.71719 13.5454 2.88128 13.3813C3.04538 13.2172 3.26794 13.125 3.5 13.125H18.375C18.6071 13.125 18.8296 13.2172 18.9937 13.3813C19.1578 13.5454 19.25 13.7679 19.25 14C19.25 14.2321 19.1578 14.4546 18.9937 14.6187C18.8296 14.7828 18.6071 14.875 18.375 14.875Z" fill="black"/>
<path d="M9.625 21.875H3.5C3.26794 21.875 3.04538 21.7828 2.88128 21.6187C2.71719 21.4546 2.625 21.2321 2.625 21C2.625 20.7679 2.71719 20.5454 2.88128 20.3813C3.04538 20.2172 3.26794 20.125 3.5 20.125H9.625C9.85706 20.125 10.0796 20.2172 10.2437 20.3813C10.4078 20.5454 10.5 20.7679 10.5 21C10.5 21.2321 10.4078 21.4546 10.2437 21.6187C10.0796 21.7828 9.85706 21.875 9.625 21.875Z" fill="black"/>
<path d="M7.875 9.625C7.35583 9.625 6.84831 9.47105 6.41663 9.18261C5.98495 8.89417 5.6485 8.4842 5.44982 8.00454C5.25114 7.52489 5.19915 6.99709 5.30044 6.48789C5.40173 5.97869 5.65173 5.51096 6.01885 5.14385C6.38596 4.77673 6.85369 4.52673 7.36289 4.42544C7.87209 4.32415 8.39989 4.37614 8.87955 4.57482C9.3592 4.7735 9.76917 5.10995 10.0576 5.54163C10.346 5.97331 10.5 6.48082 10.5 7C10.5 7.69619 10.2234 8.36387 9.73116 8.85616C9.23887 9.34844 8.57119 9.625 7.875 9.625ZM7.875 6.125C7.70194 6.125 7.53277 6.17632 7.38888 6.27247C7.24498 6.36861 7.13283 6.50527 7.06661 6.66515C7.00038 6.82504 6.98305 7.00097 7.01681 7.17071C7.05058 7.34044 7.13391 7.49635 7.25628 7.61872C7.37865 7.74109 7.53456 7.82443 7.7043 7.85819C7.87403 7.89195 8.04996 7.87462 8.20985 7.8084C8.36974 7.74217 8.50639 7.63002 8.60254 7.48613C8.69868 7.34223 8.75 7.17306 8.75 7C8.75 6.76794 8.65781 6.54538 8.49372 6.38128C8.32963 6.21719 8.10707 6.125 7.875 6.125Z" fill="black"/>
<path d="M20.125 16.625C19.6058 16.625 19.0983 16.471 18.6666 16.1826C18.235 15.8942 17.8985 15.4842 17.6998 15.0045C17.5011 14.5249 17.4492 13.9971 17.5504 13.4879C17.6517 12.9787 17.9017 12.511 18.2688 12.1438C18.636 11.7767 19.1037 11.5267 19.6129 11.4254C20.1221 11.3242 20.6499 11.3761 21.1295 11.5748C21.6092 11.7735 22.0192 12.11 22.3076 12.5416C22.596 12.9733 22.75 13.4808 22.75 14C22.75 14.6962 22.4734 15.3639 21.9812 15.8562C21.4889 16.3484 20.8212 16.625 20.125 16.625ZM20.125 13.125C19.9519 13.125 19.7828 13.1763 19.6389 13.2725C19.495 13.3686 19.3828 13.5053 19.3166 13.6652C19.2504 13.825 19.2331 14.001 19.2668 14.1707C19.3006 14.3404 19.3839 14.4964 19.5063 14.6187C19.6287 14.7411 19.7846 14.8244 19.9543 14.8582C20.124 14.892 20.3 14.8746 20.4598 14.8084C20.6197 14.7422 20.7564 14.63 20.8525 14.4861C20.9487 14.3422 21 14.1731 21 14C21 13.7679 20.9078 13.5454 20.7437 13.3813C20.5796 13.2172 20.3571 13.125 20.125 13.125Z" fill="black"/>
<path d="M11.375 23.625C10.8558 23.625 10.3483 23.471 9.91663 23.1826C9.48495 22.8942 9.1485 22.4842 8.94982 22.0045C8.75114 21.5249 8.69915 20.9971 8.80044 20.4879C8.90173 19.9787 9.15173 19.511 9.51885 19.1438C9.88596 18.7767 10.3537 18.5267 10.8629 18.4254C11.3721 18.3242 11.8999 18.3761 12.3795 18.5748C12.8592 18.7735 13.2692 19.11 13.5576 19.5416C13.846 19.9733 14 20.4808 14 21C14 21.6962 13.7234 22.3639 13.2312 22.8562C12.7389 23.3484 12.0712 23.625 11.375 23.625ZM11.375 20.125C11.2019 20.125 11.0328 20.1763 10.8889 20.2725C10.745 20.3686 10.6328 20.5053 10.5666 20.6652C10.5004 20.825 10.4831 21.001 10.5168 21.1707C10.5506 21.3404 10.6339 21.4964 10.7563 21.6187C10.8787 21.7411 11.0346 21.8244 11.2043 21.8582C11.374 21.892 11.55 21.8746 11.7099 21.8084C11.8697 21.7422 12.0064 21.63 12.1025 21.4861C12.1987 21.3422 12.25 21.1731 12.25 21C12.25 20.7679 12.1578 20.5454 11.9937 20.3813C11.8296 20.2172 11.6071 20.125 11.375 20.125Z" fill="black"/>
<path d="M24.5 14.875H21.875C21.6429 14.875 21.4204 14.7828 21.2563 14.6187C21.0922 14.4546 21 14.2321 21 14C21 13.7679 21.0922 13.5454 21.2563 13.3813C21.4204 13.2172 21.6429 13.125 21.875 13.125H24.5C24.7321 13.125 24.9546 13.2172 25.1187 13.3813C25.2828 13.5454 25.375 13.7679 25.375 14C25.375 14.2321 25.2828 14.4546 25.1187 14.6187C24.9546 14.7828 24.7321 14.875 24.5 14.875Z" fill="black"/>
<path d="M24.5 21.875H13.125C12.8929 21.875 12.6704 21.7828 12.5063 21.6187C12.3422 21.4546 12.25 21.2321 12.25 21C12.25 20.7679 12.3422 20.5454 12.5063 20.3813C12.6704 20.2172 12.8929 20.125 13.125 20.125H24.5C24.7321 20.125 24.9546 20.2172 25.1187 20.3813C25.2828 20.5454 25.375 20.7679 25.375 21C25.375 21.2321 25.2828 21.4546 25.1187 21.6187C24.9546 21.7828 24.7321 21.875 24.5 21.875Z" fill="black"/>
</svg>
