<svg width="30" height="30" viewBox="0 0 30 30" fill="none" xmlns="http://www.w3.org/2000/svg">
<path d="M27.2 7.24999H19.61V8.74999H27.2C27.78 8.74999 28.25 9.21999 28.25 9.80999V26.11C28.25 26.69 27.78 27.16 27.2 27.16H2.81C2.23 27.16 1.75 26.69 1.75 26.11V9.79999C1.75 9.21999 2.22 8.73999 2.81 8.73999H10.39V7.23999H2.81C1.4 7.23999 0.25 8.38999 0.25 9.79999V26.1C0.25 27.51 1.4 28.65 2.81 28.65H27.21C28.62 28.65 29.76 27.51 29.76 26.1V9.79999C29.75 8.38999 28.61 7.24999 27.2 7.24999Z" fill="#2D4356"/>
<path d="M12.1999 16.84C12.1999 15.37 11.0099 14.18 9.53988 14.18C8.06988 14.18 6.87988 15.37 6.87988 16.84C6.87988 18.31 8.06988 19.5 9.53988 19.5C11.0099 19.5 12.1999 18.3 12.1999 16.84Z" fill="#2D4356"/>
<path d="M4.86994 23.27C4.64994 23.76 4.99994 24.32 5.53994 24.32H13.5599C14.0999 24.32 14.4399 23.77 14.2299 23.27C13.4499 21.46 11.6499 20.18 9.54994 20.18C7.44994 20.18 5.64994 21.46 4.86994 23.27Z" fill="#2D4356"/>
<path d="M9.52979 10.52V12.02H20.4698V10.52H18.1198V4.46998C18.1198 2.74998 16.7198 1.34998 14.9998 1.34998C13.2798 1.34998 11.8798 2.74998 11.8798 4.46998V10.53H9.52979V10.52ZM14.2498 4.11998H15.7498V5.61998H14.2498V4.11998Z" fill="#2D4356"/>
<path d="M25.4602 16.33H16.7202V17.83H25.4602V16.33Z" fill="#2D4356"/>
<path d="M25.4602 20.66H16.7202V22.16H25.4602V20.66Z" fill="#2D4356"/>
</svg>
