<svg width="50" height="50" viewBox="0 0 50 50" fill="none" xmlns="http://www.w3.org/2000/svg">
<path d="M15.1004 46.55H3.75039C2.80039 46.55 2.05039 45.8 2.05039 44.85V4.80001C2.05039 3.85001 2.80039 3.10001 3.75039 3.10001H32.8504C33.8004 3.10001 34.5504 3.85001 34.5504 4.80001V17.4L36.1504 16.1V4.80001C36.1504 2.95001 34.6504 1.45001 32.8004 1.45001H3.75039C1.90039 1.45001 0.400391 2.95001 0.400391 4.80001V44.85C0.400391 46.7 1.90039 48.2 3.75039 48.2H14.1504L15.1004 46.55Z" fill="black"/>
<path d="M19.2996 39.35H13.6496C13.1996 39.35 12.8496 39.7 12.8496 40.15C12.8496 40.6 13.1996 40.95 13.6496 40.95H18.3496L19.2996 39.35Z" fill="black"/>
<path d="M23.4496 32.2H13.6496C13.1996 32.2 12.8496 32.55 12.8496 33C12.8496 33.45 13.1996 33.8 13.6496 33.8H22.4996L23.4496 32.2Z" fill="black"/>
<path d="M47.4002 21.85L48.4002 20.5C50.0502 18.3 49.6002 15.15 47.4002 13.5C45.2002 11.85 42.0502 12.3 40.4002 14.5L22.7002 38.15C22.6502 38.2 22.4502 38.6 22.4002 38.75L20.9002 47.75C20.8502 48.05 20.9502 48.35 21.2002 48.55C21.3502 48.65 21.7502 48.75 22.0502 48.65L30.2502 44.7C30.4502 44.6 30.7002 44.25 30.7502 44.2L46.4002 23.2C46.7502 23.6 46.9502 24.1 47.0002 24.65C47.1002 25.45 46.9002 26.25 46.4002 26.9L41.5502 33.35C41.3002 33.7 41.3502 34.2 41.7002 34.5C41.8502 34.6 42.0002 34.65 42.2002 34.65C42.4502 34.65 42.7002 34.55 42.8502 34.35L47.7002 27.9C48.4502 26.9 48.7502 25.65 48.6002 24.45C48.5002 23.4 48.1002 22.55 47.4002 21.85ZM46.4502 14.8C47.7002 15.75 48.1502 17.45 47.5502 18.8L42.3002 14.85C43.4502 13.9 45.2002 13.85 46.4502 14.8ZM41.2502 16.1L46.6502 20.15L30.4002 41.85C29.3002 39.35 26.8502 38.3 24.9002 37.95L41.2502 16.1ZM24.2502 45.75L23.1002 44.75L24.0002 39.5C24.5502 39.55 25.3502 39.7 26.2002 40C27.8502 40.65 28.9002 41.8 29.2502 43.35L24.2502 45.75Z" fill="black"/>
<path d="M27.0996 26.8H13.6496C13.1996 26.8 12.8496 26.45 12.8496 26C12.8496 25.55 13.1996 25.2 13.6496 25.2H27.0996C27.5496 25.2 27.8996 25.55 27.8996 26C27.8996 26.45 27.5496 26.8 27.0996 26.8Z" fill="black"/>
<path d="M7.80039 28.2C7.60039 28.2 7.40039 28.1 7.25039 27.95L6.00039 26.7C5.70039 26.4 5.70039 25.85 6.00039 25.55C6.30039 25.25 6.85039 25.25 7.15039 25.55L7.80039 26.25L10.2004 23.95C10.5004 23.65 11.0504 23.65 11.3504 24C11.6504 24.3 11.6504 24.85 11.3004 25.15L8.30039 28C8.20039 28.1 8.00039 28.2 7.80039 28.2Z" fill="black"/>
<path d="M7.80039 35.25C7.60039 35.25 7.40039 35.15 7.25039 35L6.00039 33.75C5.70039 33.45 5.70039 32.9 6.00039 32.6C6.30039 32.3 6.85039 32.3 7.15039 32.6L7.80039 33.3L10.2004 31C10.5004 30.7 11.0504 30.7 11.3504 31.05C11.6504 31.35 11.6504 31.9 11.3004 32.2L8.30039 35.05C8.20039 35.15 8.00039 35.25 7.80039 35.25Z" fill="black"/>
<path d="M7.80039 42.4C7.60039 42.4 7.40039 42.3 7.25039 42.15L6.00039 40.9C5.70039 40.6 5.70039 40.05 6.00039 39.75C6.30039 39.45 6.85039 39.45 7.15039 39.75L7.80039 40.45L10.2004 38.15C10.5004 37.85 11.0504 37.85 11.3504 38.2C11.6504 38.5 11.6504 39.05 11.3004 39.35L8.30039 42.2C8.20039 42.3 8.00039 42.4 7.80039 42.4Z" fill="black"/>
<path d="M25.1496 13.3C24.6996 13.25 24.2996 13.55 24.2496 14C24.0496 15.6 23.2496 17 21.9996 18C20.7496 19 19.1496 19.4 17.5496 19.2C14.2496 18.8 11.9496 15.8 12.3496 12.5C12.7496 9.20002 15.7496 6.90002 19.0496 7.30002C19.4996 7.35002 19.8996 7.05002 19.9496 6.60002C19.9996 6.15002 19.6996 5.75002 19.2496 5.70002C15.0996 5.15002 11.2496 8.15002 10.7496 12.3C10.2496 16.45 13.1996 20.25 17.3496 20.8C17.6496 20.85 17.9996 20.85 18.2996 20.85C22.0496 20.85 25.3496 18.05 25.8496 14.2C25.8996 13.8 25.5996 13.35 25.1496 13.3Z" fill="black"/>
<path d="M15.9502 11.2C15.6502 10.9 15.1002 10.9 14.8002 11.2C14.5002 11.5 14.5002 12.05 14.8002 12.35L17.6002 15.2C17.7502 15.35 17.9502 15.45 18.1502 15.45C18.3502 15.45 18.5502 15.4 18.7002 15.25L25.5002 8.79999C25.8002 8.49999 25.8502 7.99999 25.5502 7.64999C25.2502 7.34999 24.7502 7.29999 24.4002 7.59999L18.2002 13.5L15.9502 11.2Z" fill="black"/>
</svg>
