<svg width="26" height="26" viewBox="0 0 26 26" fill="none" xmlns="http://www.w3.org/2000/svg">
<path d="M21.125 11.375H14.625V4.875C14.625 3.978 13.8978 3.25 13 3.25C12.1022 3.25 11.375 3.978 11.375 4.875V11.375H4.875C3.97719 11.375 3.25 12.1022 3.25 13C3.25 13.8978 3.97719 14.625 4.875 14.625H11.375V21.125C11.375 22.0228 12.1022 22.75 13 22.75C13.8978 22.75 14.625 22.0228 14.625 21.125V14.625H21.125C22.0228 14.625 22.75 13.8978 22.75 13C22.75 12.1022 22.0228 11.375 21.125 11.375Z" fill="black"/>
</svg>
