<svg width="22" height="19" viewBox="0 0 22 19" fill="none" xmlns="http://www.w3.org/2000/svg">
<path d="M21.9068 11.7855L18.6994 7.3697C18.609 7.24527 18.4646 7.17163 18.3108 7.17163C18.157 7.17163 18.013 7.24527 17.923 7.3697L14.7148 11.7845C14.6085 11.9309 14.5931 12.1243 14.6751 12.2851C14.7572 12.4459 14.9226 12.547 15.103 12.547H16.88C16.4927 13.2022 16.0001 13.7988 15.4003 14.3044C14.004 15.4812 12.2335 16.0437 10.4141 15.889C8.64454 15.7389 7.02597 14.9205 5.85573 13.5872C5.44841 13.123 4.74049 13.0764 4.27584 13.4842C3.8112 13.892 3.76459 14.5994 4.17238 15.0636C5.72617 16.8351 7.8751 17.92 10.2235 18.1204C10.4863 18.1432 10.7483 18.154 11.0092 18.154C13.1447 18.154 15.192 17.4092 16.8441 16.0167C17.9747 15.0636 18.8355 13.8757 19.3831 12.547H21.5181C21.6989 12.547 21.8639 12.4459 21.9459 12.2851C22.0279 12.1243 22.013 11.9309 21.9068 11.7855Z" fill="#474A56"/>
<path d="M4.07566 10.7858L7.28391 6.37006C7.3897 6.22419 7.40508 6.03031 7.32305 5.87046C7.24103 5.70921 7.07605 5.60854 6.89569 5.60854H5.10096C6.40262 3.38505 8.8857 2.03911 11.5757 2.26607C13.3597 2.418 14.9876 3.24663 16.1606 4.59816C16.5656 5.06513 17.2731 5.115 17.7401 4.71048C18.207 4.30502 18.2574 3.59756 17.8519 3.13059C16.2953 1.33585 14.1334 0.235987 11.7659 0.0337238C7.75694 -0.308818 4.09057 1.98691 2.60576 5.60808H0.480131C0.299772 5.60808 0.134326 5.70921 0.0523021 5.86999C-0.0297216 6.03031 -0.0143422 6.22372 0.0919159 6.36959L3.2997 10.7854C3.39011 10.9103 3.53458 10.9839 3.68791 10.9839C3.84124 10.9844 3.98525 10.9107 4.07566 10.7858Z" fill="#474A56"/>
</svg>
